<svg width="38" height="41" viewBox="0 0 38 41" fill="none" xmlns="http://www.w3.org/2000/svg">
<g filter="url(#filter0_d_5_110)">
<path d="M19 33C10.7155 33 4 26.2845 4 18C4 9.7155 10.7155 3 19 3C27.2845 3 34 9.7155 34 18C34 26.2845 27.2845 33 19 33ZM11.5195 27.384C13.6428 29.0815 16.2815 30.0043 19 30C21.955 30 24.6595 28.932 26.7505 27.162C25.7736 26.1596 24.6056 25.3633 23.3156 24.8202C22.0255 24.2771 20.6397 23.9982 19.24 24C17.7889 23.9983 16.3533 24.2983 15.0242 24.8808C13.6951 25.4634 12.5017 26.3158 11.5195 27.384ZM9.424 25.23C10.6847 23.8921 12.206 22.8266 13.8942 22.0991C15.5824 21.3716 17.4017 20.9975 19.24 21C21.0125 20.9977 22.768 21.3455 24.4056 22.0236C26.0433 22.7016 27.5309 23.6965 28.783 24.951C30.0671 23.1437 30.8254 21.016 30.9738 18.8039C31.1223 16.5918 30.6549 14.3818 29.6237 12.4192C28.5925 10.4565 27.0378 8.81793 25.132 7.68517C23.2261 6.5524 21.0437 5.96976 18.8269 6.00188C16.6101 6.034 14.4455 6.67963 12.5733 7.86714C10.7011 9.05464 9.19444 10.7376 8.22054 12.7293C7.24664 14.721 6.84354 16.9436 7.05597 19.1504C7.26841 21.3573 8.08806 23.4621 9.424 25.2315V25.23ZM19 19.5C17.4087 19.5 15.8826 18.8679 14.7574 17.7426C13.6321 16.6174 13 15.0913 13 13.5C13 11.9087 13.6321 10.3826 14.7574 9.25736C15.8826 8.13214 17.4087 7.5 19 7.5C20.5913 7.5 22.1174 8.13214 23.2426 9.25736C24.3679 10.3826 25 11.9087 25 13.5C25 15.0913 24.3679 16.6174 23.2426 17.7426C22.1174 18.8679 20.5913 19.5 19 19.5ZM19 16.5C19.7956 16.5 20.5587 16.1839 21.1213 15.6213C21.6839 15.0587 22 14.2956 22 13.5C22 12.7044 21.6839 11.9413 21.1213 11.3787C20.5587 10.8161 19.7956 10.5 19 10.5C18.2044 10.5 17.4413 10.8161 16.8787 11.3787C16.3161 11.9413 16 12.7044 16 13.5C16 14.2956 16.3161 15.0587 16.8787 15.6213C17.4413 16.1839 18.2044 16.5 19 16.5Z" fill="black"/>
</g>
<defs>
<filter id="filter0_d_5_110" x="-3" y="0" width="44" height="44" filterUnits="userSpaceOnUse" color-interpolation-filters="sRGB">
<feFlood flood-opacity="0" result="BackgroundImageFix"/>
<feColorMatrix in="SourceAlpha" type="matrix" values="0 0 0 0 0 0 0 0 0 0 0 0 0 0 0 0 0 0 127 0" result="hardAlpha"/>
<feOffset dy="4"/>
<feGaussianBlur stdDeviation="2"/>
<feComposite in2="hardAlpha" operator="out"/>
<feColorMatrix type="matrix" values="0 0 0 0 0 0 0 0 0 0 0 0 0 0 0 0 0 0 0.25 0"/>
<feBlend mode="normal" in2="BackgroundImageFix" result="effect1_dropShadow_5_110"/>
<feBlend mode="normal" in="SourceGraphic" in2="effect1_dropShadow_5_110" result="shape"/>
</filter>
</defs>
</svg>
